<svg width="10" height="25" viewBox="0 0 10 25" fill="none" xmlns="http://www.w3.org/2000/svg">
<path d="M8.20781 24.9999C7.99776 25.0008 7.79021 24.942 7.60042 24.8276C7.41063 24.7133 7.24343 24.5464 7.11109 24.3393L0.31986 13.626C0.113055 13.3065 0 12.9057 0 12.4922C0 12.0786 0.113055 11.6778 0.31986 11.3583L7.35012 0.645034C7.58878 0.280395 7.93174 0.0510868 8.30353 0.00755556C8.67533 -0.0359757 9.04552 0.109836 9.33266 0.412913C9.6198 0.715989 9.80037 1.15151 9.83465 1.62365C9.86893 2.0958 9.7541 2.5659 9.51544 2.93054L3.23039 12.5011L9.30454 22.0716C9.47647 22.3337 9.58569 22.6529 9.61927 22.9913C9.65284 23.3298 9.60937 23.6734 9.494 23.9814C9.37862 24.2895 9.19617 24.5491 8.96824 24.7296C8.7403 24.9101 8.47642 25.0039 8.20781 24.9999Z" fill="#404258"/>
</svg>
