<svg width="61" height="18" viewBox="0 0 61 18" fill="none" xmlns="http://www.w3.org/2000/svg">
<path fill-rule="evenodd" clip-rule="evenodd" d="M17.4502 9.49272C17.6959 6.8025 16.5176 4.37273 15.2506 2.95585C13.9999 1.5572 12.1294 0.258538 9.3766 0.027372C8.03213 -0.085476 6.70283 0.159872 5.59863 0.592726C4.40595 1.06022 3.14354 1.90324 2.33366 2.8356C1.80385 3.44553 1.36354 4.00096 0.984812 4.77185C-0.13894 7.05889 -0.336242 9.58815 0.575647 12.0024C1.01708 13.1711 1.4742 13.8321 2.22585 14.7458C2.82142 15.4697 3.83094 16.2373 4.68256 16.6864C5.6817 17.2134 6.75954 17.5629 8.09912 17.6734C9.44329 17.7842 10.8052 17.5323 11.898 17.1014C13.053 16.6461 13.8308 16.0801 14.6046 15.4081C14.7805 15.2554 15.0048 15.0237 15.1565 14.8503C16.5233 13.2895 17.248 11.7072 17.4502 9.49272Z" fill="#2086C9"/>
<path fill-rule="evenodd" clip-rule="evenodd" d="M3.69659 6.25904C4.0693 6.24253 4.83551 7.43686 7.40401 6.62544C7.99093 6.44007 8.54405 6.209 9.10715 5.99982C10.3656 5.53232 11.5482 5.05915 12.8774 5.57314C13.1231 5.66816 13.4633 5.84392 13.6357 5.98898C13.9085 6.21842 13.8427 6.50226 13.8427 6.93816V10.4295C13.8427 10.6363 13.8864 11.3977 13.7856 11.525C13.6783 11.5343 13.2576 11.2766 13.0032 11.1738C12.0466 10.7872 10.9986 10.9243 10.0654 11.187C8.33046 11.6754 6.4123 12.7874 4.55554 12.1093C3.4946 11.7218 3.63662 11.5459 3.63662 10.7488V7.32137C3.63652 7.04705 3.5848 6.44939 3.69659 6.25904Z" fill="white"/>
<path fill-rule="evenodd" clip-rule="evenodd" d="M55.3052 9.50327C55.2685 9.16675 55.2954 8.59431 55.2998 8.23662C55.3043 7.85897 55.4166 7.5179 55.5724 7.25604C56.307 6.02119 58.1003 6.03051 58.8156 7.26677C58.9829 7.55578 59.0816 7.8535 59.0852 8.25799C59.0879 8.57587 59.1197 9.22237 59.0772 9.50844L55.3052 9.50327ZM55.304 11.4329L59.0845 11.4355L59.0864 13.349L60.9844 13.3438C61.0122 12.2937 60.9863 11.2069 60.9863 10.1526C60.9863 9.21467 61.0702 7.98327 60.8228 7.14359C60.3933 5.68528 59.0354 4.40374 57.1784 4.40718C55.3347 4.41063 53.9652 5.71273 53.5552 7.16537C53.3173 8.00849 53.3974 9.22247 53.3974 10.1739C53.3974 11.2264 53.3827 12.2892 53.3984 13.349L55.2994 13.3452L55.304 11.4329Z" fill="#2086C9"/>
<path fill-rule="evenodd" clip-rule="evenodd" d="M33.55 9.50245C33.5167 9.16705 33.5367 8.58792 33.546 8.2359C33.5724 7.23 34.3358 6.33187 35.4434 6.33278C36.5478 6.3338 37.3194 7.23607 37.3361 8.25718C37.3424 8.63938 37.3595 9.12623 37.3341 9.50823L33.55 9.50245ZM33.5487 11.4328L37.3371 11.4421L37.3401 13.3494L39.2312 13.3475C39.2654 12.3041 39.2329 11.2026 39.2329 10.1527C39.2329 9.21041 39.3176 7.98336 39.07 7.13933C38.6494 5.70533 37.2973 4.40738 35.4435 4.40718C33.5894 4.40697 32.2396 5.68912 31.8078 7.15291C31.5651 7.97556 31.6493 9.24161 31.6493 10.174C31.6493 10.7062 31.6493 11.2383 31.6493 11.7706C31.6493 12.2737 31.6228 12.8521 31.6539 13.3492L33.5449 13.347L33.5487 11.4328Z" fill="#2086C9"/>
<path fill-rule="evenodd" clip-rule="evenodd" d="M22.6834 6.33313C23.1049 6.31702 23.8472 6.30548 24.2482 6.35248C26.5198 6.6189 27.2872 9.62953 25.3778 10.9713C24.6192 11.5045 23.6339 11.4721 22.6754 11.4187L22.6834 6.33313ZM20.783 13.348C21.7879 13.3608 22.8002 13.349 23.8059 13.3493C24.8035 13.3496 25.4873 13.1312 26.1964 12.7231C28.9662 11.1294 29.1883 6.82514 26.193 5.03102C25.5319 4.63494 24.7518 4.40722 23.8059 4.40732C22.802 4.40742 21.7881 4.39324 20.7796 4.40732L20.783 13.348Z" fill="#2086C9"/>
<path fill-rule="evenodd" clip-rule="evenodd" d="M44.4277 13.348C44.429 11.8642 44.4297 10.3804 44.4297 8.89668C44.4297 8.05792 44.4084 7.62071 44.8344 7.06569C45.1155 6.69959 45.6344 6.32802 46.3324 6.33298C47.0524 6.33815 47.5371 6.70952 47.8282 7.08878C48.2469 7.63469 48.2143 8.1109 48.2143 8.91785L48.216 13.3493L50.1151 13.3419C50.137 12.2872 50.1164 11.2098 50.1164 10.1525C50.1164 9.21901 50.2001 7.97971 49.9536 7.14389C49.5237 5.68588 48.1707 4.40484 46.311 4.40687C44.4609 4.4089 43.1081 5.70644 42.686 7.16182C42.4447 7.99379 42.5277 9.23968 42.5277 10.1738L42.5294 13.3486L44.4277 13.348Z" fill="#2086C9"/>
</svg>
