<svg width="61" height="15" viewBox="0 0 61 15" fill="none" xmlns="http://www.w3.org/2000/svg">
<path fill-rule="evenodd" clip-rule="evenodd" d="M7.03138 14.2228C10.9047 14.2228 14.0628 11.0278 14.0628 7.1114C14.0628 3.19498 10.9047 0 7.03138 0C3.15808 0 0 3.19498 0 7.1114C0 11.0288 3.15903 14.2228 7.03138 14.2228Z" fill="#00ADD9"/>
<path fill-rule="evenodd" clip-rule="evenodd" d="M2.97878 8.70791C3.06747 9.8731 3.78741 10.7692 5.11593 10.8322C6.39351 10.8932 7.67014 10.9133 8.94677 10.8322C10.1196 10.7587 10.9952 9.8731 11.0839 8.70791C11.1302 8.11052 11.149 7.51314 11.1434 6.9167C10.848 5.3049 9.51102 5.24764 9.38553 5.24573H9.38175H9.37798H9.37703H4.88287C4.7253 5.24573 4.59603 5.115 4.59603 4.95563C4.59603 4.79531 4.72436 4.66552 4.88287 4.66552H9.39119C9.34967 3.58526 8.16928 3.38295 7.60692 3.3486L7.31536 3.34192H7.31442C6.58033 3.33142 5.84813 3.3486 5.11593 3.40681C3.76099 3.51369 3.06747 4.36588 2.97878 5.53107C2.89763 6.59033 2.89763 7.64865 2.97878 8.70791ZM9.74313 8.09526V8.48174C9.74313 8.62584 9.62613 8.74417 9.48366 8.74417C9.34118 8.74417 9.22418 8.62584 9.22418 8.48174V8.0943C9.11001 8.017 9.03547 7.88913 9.03547 7.74598C9.03547 7.50932 9.23644 7.31846 9.48366 7.31846C9.73087 7.31846 9.93185 7.51027 9.93185 7.74598C9.93185 7.89008 9.8573 8.017 9.74313 8.09526Z" fill="white"/>
<path fill-rule="evenodd" clip-rule="evenodd" d="M49.5348 6.46722L49.531 7.7517C49.531 7.7517 49.097 8.61438 47.5977 8.82624C46.0984 9.03713 46.0974 8.09334 46.2059 7.84999C46.3144 7.60569 46.6673 7.26978 47.9081 7.06461C49.2319 6.84512 49.5348 6.46722 49.5348 6.46722ZM51.3011 5.23046C51.3011 3.24362 49.4121 2.31795 47.7213 2.48209C46.1474 2.63573 44.8255 3.37817 44.4188 5.0396L46.0483 5.44517C46.5635 3.95647 48.4931 3.52036 49.3102 4.5844C49.5291 4.87355 49.4376 5.17511 49.1159 5.34306C48.6365 5.59309 47.7213 5.52056 46.7881 5.77918C42.8421 6.87375 44.0839 10.523 47.3533 10.4294C48.3997 10.3999 49.1536 9.91604 49.665 9.43221L49.682 10.2453H51.3002V5.23046H51.3011ZM20.4185 4.32483C19.2325 4.32483 18.2691 5.30203 18.2691 6.50921C18.2691 7.71544 19.2315 8.69359 20.4185 8.69359C21.6065 8.69359 22.5689 7.71639 22.5689 6.50921C22.5689 5.30203 21.6065 4.32483 20.4185 4.32483ZM24.6306 2.71685V8.95602V10.0935C24.6306 12.6739 22.8548 14.2228 20.5978 14.2228C19.0645 14.2228 17.9426 13.8582 16.8538 12.6539L18.1917 11.4372C18.8381 12.2073 19.6156 12.3934 20.5695 12.3934C21.7159 12.3934 22.5679 11.4601 22.5679 10.3159V9.55913C21.9046 10.1441 21.0451 10.4972 20.1062 10.4972C18.0068 10.4972 16.3046 8.73176 16.3046 6.55406C16.3046 4.37636 18.0068 2.61092 20.1062 2.61092C21.0451 2.61092 21.9046 2.96401 22.5679 3.54899V2.71685H24.6306ZM60.9999 2.59374L58.7901 2.58993L56.6058 7.43392L54.0865 2.58897H51.8701L55.5094 9.49138L53.5864 13.4975H55.8028L60.9999 2.59374ZM39.4142 4.32483C40.6003 4.32483 41.5627 5.30203 41.5627 6.50921C41.5627 7.71544 40.6003 8.69359 39.4142 8.69359C38.2263 8.69359 37.2638 7.71639 37.2638 6.50921C37.2638 5.30203 38.2263 4.32483 39.4142 4.32483ZM35.2022 2.71685H37.2648V3.5509C37.9281 2.96592 38.7877 2.61283 39.7265 2.61283C41.8259 2.61283 43.5281 4.37827 43.5281 6.55597C43.5281 8.73367 41.825 10.4991 39.7265 10.4991C38.7877 10.4991 37.9281 10.146 37.2648 9.56104V13.4985H35.2022V2.71685ZM29.7031 4.26471C30.9958 4.26471 32.0441 5.29058 32.0441 6.55597C32.0441 7.82232 30.9967 8.84818 29.7031 8.84818C28.4105 8.84818 27.3631 7.82232 27.3631 6.55597C27.3622 5.29058 28.4095 4.26471 29.7031 4.26471ZM29.7031 2.46778C27.3971 2.46778 25.5269 4.29907 25.5269 6.55692C25.5269 8.81574 27.3961 10.6461 29.7031 10.6461C32.0101 10.6461 33.8793 8.81574 33.8793 6.55692C33.8784 4.29811 32.0092 2.46778 29.7031 2.46778Z" fill="black"/>
</svg>
