<svg width="49" height="25" viewBox="0 0 49 25" fill="none" xmlns="http://www.w3.org/2000/svg">
<path d="M49 0H0V25H49V0Z" fill="#412A8C"/>
<path fill-rule="evenodd" clip-rule="evenodd" d="M11.3341 5.84021C14.8962 5.84021 17.7838 8.82215 17.7838 12.4999C17.7838 16.1784 14.8962 19.1597 11.3341 19.1597C7.77204 19.1597 4.8844 16.1777 4.8844 12.4999C4.8844 8.82146 7.77204 5.84021 11.3341 5.84021ZM11.3341 8.33327C9.10526 8.33327 7.29904 10.1985 7.29904 12.4999C7.29904 14.8013 9.10594 16.6666 11.3341 16.6666C13.563 16.6666 15.3699 14.8013 15.3699 12.4999C15.3699 10.1985 13.563 8.33327 11.3341 8.33327ZM37.6659 5.84021C41.2279 5.84021 44.1156 8.82215 44.1156 12.4999C44.1156 16.1784 41.2279 19.1597 37.6659 19.1597C34.1038 19.1597 31.2161 16.1777 31.2161 12.4999C31.2161 8.82146 34.1038 5.84021 37.6659 5.84021ZM37.6659 8.33327C35.437 8.33327 33.6308 10.1985 33.6308 12.4999C33.6308 14.8013 35.4377 16.6666 37.6659 16.6666C39.8947 16.6666 41.7009 14.8013 41.7009 12.4999C41.7009 10.1985 39.894 8.33327 37.6659 8.33327ZM19.2736 8.42424L23.1923 17.3965C23.2671 17.568 23.8667 19.0992 25.7369 19.0145L30.4947 7.66313V6.29854H26.4236V8.42424H27.7289L24.9563 15.3555L21.8815 8.42424H23.2522V6.29854H18.0921V8.42424H19.2736Z" fill="white"/>
</svg>
