<svg width="97" height="16" viewBox="0 0 97 16" fill="none" xmlns="http://www.w3.org/2000/svg">
<path d="M12.9858 15.475C12.852 15.4755 12.72 15.4448 12.601 15.3854L8.33473 13.2112L4.0685 15.3854C3.92997 15.4563 3.77378 15.4879 3.61768 15.4767C3.46159 15.4656 3.31185 15.4119 3.1855 15.322C3.05914 15.2321 2.96124 15.1095 2.90291 14.9681C2.84459 14.8267 2.82818 14.6722 2.85555 14.5222L3.69207 9.93775L0.245626 6.68057C0.138098 6.57611 0.0618196 6.44513 0.0249763 6.30167C-0.0118671 6.15821 -0.00788436 6.00769 0.036497 5.86627C0.0849813 5.72155 0.174168 5.59296 0.293935 5.49508C0.413702 5.39721 0.559254 5.33397 0.714074 5.31255L5.48221 4.63669L7.58186 0.459352C7.65036 0.321678 7.75731 0.205571 7.89046 0.12433C8.02361 0.0430886 8.17758 0 8.33473 0C8.49187 0 8.64584 0.0430886 8.77899 0.12433C8.91214 0.205571 9.01909 0.321678 9.08759 0.459352L11.2123 4.62854L15.9805 5.30441C16.1353 5.32583 16.2808 5.38907 16.4006 5.48694C16.5204 5.58481 16.6096 5.71341 16.6581 5.85813C16.7024 5.99955 16.7064 6.15007 16.6696 6.29353C16.6327 6.43699 16.5565 6.56797 16.4489 6.67242L13.0025 9.92961L13.839 14.5141C13.8689 14.6667 13.8532 14.8245 13.7939 14.9688C13.7346 15.1131 13.6342 15.2379 13.5044 15.3284C13.3529 15.4317 13.1705 15.4833 12.9858 15.475Z" fill="#CF9A12"/>
<path d="M33.0621 15.475C32.9283 15.4755 32.7964 15.4448 32.6773 15.3854L28.4111 13.2112L24.1449 15.3854C24.0063 15.4563 23.8501 15.4879 23.694 15.4767C23.538 15.4656 23.3882 15.4119 23.2619 15.322C23.1355 15.2321 23.0376 15.1095 22.9793 14.9681C22.9209 14.8267 22.9045 14.6722 22.9319 14.5222L23.7684 9.93775L20.322 6.68057C20.2145 6.57611 20.1382 6.44513 20.1013 6.30167C20.0645 6.15821 20.0685 6.00769 20.1129 5.86627C20.1613 5.72155 20.2505 5.59296 20.3703 5.49508C20.4901 5.39721 20.6356 5.33397 20.7904 5.31255L25.5586 4.63669L27.6582 0.459352C27.7267 0.321678 27.8337 0.205571 27.9668 0.12433C28.1 0.0430886 28.2539 0 28.4111 0C28.5682 0 28.7222 0.0430886 28.8554 0.12433C28.9885 0.205571 29.0955 0.321678 29.164 0.459352L31.2887 4.62854L36.0568 5.30441C36.2117 5.32583 36.3572 5.38907 36.477 5.48694C36.5967 5.58481 36.6859 5.71341 36.7344 5.85813C36.7788 5.99955 36.7828 6.15007 36.7459 6.29353C36.7091 6.43699 36.6328 6.56797 36.5253 6.67242L33.0788 9.92961L33.9154 14.5141C33.9452 14.6667 33.9296 14.8245 33.8703 14.9688C33.811 15.1131 33.7105 15.2379 33.5808 15.3284C33.4293 15.4317 33.2469 15.4833 33.0621 15.475Z" fill="#CF9A12"/>
<path d="M53.1385 15.475C53.0047 15.4755 52.8727 15.4448 52.7537 15.3854L48.4875 13.2112L44.2212 15.3854C44.0827 15.4563 43.9265 15.4879 43.7704 15.4767C43.6143 15.4656 43.4646 15.4119 43.3382 15.322C43.2119 15.2321 43.114 15.1095 43.0556 14.9681C42.9973 14.8267 42.9809 14.6722 43.0083 14.5222L43.8448 9.93775L40.3984 6.68057C40.2908 6.57611 40.2145 6.44513 40.1777 6.30167C40.1409 6.15821 40.1448 6.00769 40.1892 5.86627C40.2377 5.72155 40.3269 5.59296 40.4467 5.49508C40.5664 5.39721 40.712 5.33397 40.8668 5.31255L45.6349 4.63669L47.7346 0.459352C47.8031 0.321678 47.91 0.205571 48.0432 0.12433C48.1763 0.0430886 48.3303 0 48.4875 0C48.6446 0 48.7986 0.0430886 48.9317 0.12433C49.0649 0.205571 49.1718 0.321678 49.2403 0.459352L51.3651 4.62854L56.1332 5.30441C56.288 5.32583 56.4336 5.38907 56.5533 5.48694C56.6731 5.58481 56.7623 5.71341 56.8108 5.85813C56.8552 5.99955 56.8591 6.15007 56.8223 6.29353C56.7855 6.43699 56.7092 6.56797 56.6017 6.67242L53.1552 9.92961L53.9917 14.5141C54.0216 14.6667 54.006 14.8245 53.9467 14.9688C53.8874 15.1131 53.7869 15.2379 53.6571 15.3284C53.5056 15.4317 53.3233 15.4833 53.1385 15.475Z" fill="#CF9A12"/>
<path d="M73.2148 15.475C73.0811 15.4755 72.9491 15.4448 72.83 15.3854L68.5638 13.2112L64.2976 15.3854C64.1591 15.4563 64.0029 15.4879 63.8468 15.4767C63.6907 15.4656 63.5409 15.4119 63.4146 15.322C63.2882 15.2321 63.1903 15.1095 63.132 14.9681C63.0737 14.8267 63.0573 14.6722 63.0846 14.5222L63.9212 9.93775L60.4747 6.68057C60.3672 6.57611 60.2909 6.44513 60.2541 6.30167C60.2172 6.15821 60.2212 6.00769 60.2656 5.86627C60.3141 5.72155 60.4033 5.59296 60.523 5.49508C60.6428 5.39721 60.7883 5.33397 60.9432 5.31255L65.7113 4.63669L67.811 0.459352C67.8795 0.321678 67.9864 0.205571 68.1196 0.12433C68.2527 0.0430886 68.4067 0 68.5638 0C68.721 0 68.8749 0.0430886 69.0081 0.12433C69.1412 0.205571 69.2482 0.321678 69.3167 0.459352L71.4414 4.62854L76.2096 5.30441C76.3644 5.32583 76.5099 5.38907 76.6297 5.48694C76.7495 5.58481 76.8387 5.71341 76.8871 5.85813C76.9315 5.99955 76.9355 6.15007 76.8987 6.29353C76.8618 6.43699 76.7855 6.56797 76.678 6.67242L73.2316 9.92961L74.0681 14.5141C74.098 14.6667 74.0823 14.8245 74.023 14.9688C73.9637 15.1131 73.8633 15.2379 73.7335 15.3284C73.582 15.4317 73.3996 15.4833 73.2148 15.475Z" fill="#CF9A12"/>
<path d="M93.2912 15.475C93.1574 15.4755 93.0255 15.4448 92.9064 15.3854L88.6402 13.2112L84.374 15.3854C84.2354 15.4563 84.0792 15.4879 83.9231 15.4767C83.767 15.4656 83.6173 15.4119 83.491 15.322C83.3646 15.2321 83.2667 15.1095 83.2084 14.9681C83.15 14.8267 83.1336 14.6722 83.161 14.5222L83.9975 9.93775L80.5511 6.68057C80.4436 6.57611 80.3673 6.44513 80.3304 6.30167C80.2936 6.15821 80.2976 6.00769 80.342 5.86627C80.3904 5.72155 80.4796 5.59296 80.5994 5.49508C80.7192 5.39721 80.8647 5.33397 81.0195 5.31255L85.7877 4.63669L87.8873 0.459352C87.9558 0.321678 88.0628 0.205571 88.1959 0.12433C88.3291 0.0430886 88.483 0 88.6402 0C88.7973 0 88.9513 0.0430886 89.0844 0.12433C89.2176 0.205571 89.3245 0.321678 89.393 0.459352L91.5178 4.62854L96.2859 5.30441C96.4408 5.32583 96.5863 5.38907 96.7061 5.48694C96.8258 5.58481 96.915 5.71341 96.9635 5.85813C97.0079 5.99955 97.0119 6.15007 96.975 6.29353C96.9382 6.43699 96.8619 6.56797 96.7544 6.67242L93.3079 9.92961L94.1445 14.5141C94.1743 14.6667 94.1587 14.8245 94.0994 14.9688C94.0401 15.1131 93.9396 15.2379 93.8098 15.3284C93.6584 15.4317 93.476 15.4833 93.2912 15.475ZM88.6402 11.4849C88.7743 11.4816 88.9069 11.5125 89.025 11.5745L92.1786 13.2031L91.5764 9.77489C91.553 9.64399 91.5629 9.50952 91.6052 9.38319C91.6474 9.25687 91.7208 9.14253 91.8189 9.05017L94.3285 6.66428L90.8151 6.15942C90.6863 6.13417 90.5654 6.07972 90.4622 6.0005C90.359 5.92127 90.2764 5.81949 90.2212 5.70341L88.6402 2.64981L87.0592 5.70341C86.9986 5.82043 86.91 5.92151 86.8008 5.99806C86.6916 6.07461 86.565 6.12437 86.4318 6.14313L82.9184 6.648L85.428 9.03388C85.5261 9.12625 85.5995 9.24058 85.6417 9.36691C85.684 9.49323 85.6939 9.62771 85.6706 9.7586L85.0683 13.1461L88.2219 11.5175C88.3556 11.4691 88.5004 11.4578 88.6402 11.4849Z" fill="#CF9A12"/>
</svg>
