<svg width="30" height="30" viewBox="0 0 30 30" fill="none" xmlns="http://www.w3.org/2000/svg">
<path d="M15.0003 26.2533C14.8358 26.2543 14.6727 26.2227 14.5204 26.1605C14.3681 26.0983 14.2296 26.0067 14.1128 25.8908L4.40033 16.1658C3.18203 14.9348 2.49866 13.2728 2.49866 11.5408C2.49866 9.80886 3.18203 8.14685 4.40033 6.91582C5.62816 5.69146 7.29137 5.00391 9.02533 5.00391C10.7593 5.00391 12.4225 5.69146 13.6503 6.91582L15.0003 8.26582L16.3503 6.91582C17.5782 5.69146 19.2414 5.00391 20.9753 5.00391C22.7093 5.00391 24.3725 5.69146 25.6003 6.91582C26.8186 8.14685 27.502 9.80886 27.502 11.5408C27.502 13.2728 26.8186 14.9348 25.6003 16.1658L15.8878 25.8908C15.771 26.0067 15.6325 26.0983 15.4802 26.1605C15.3279 26.2227 15.1648 26.2543 15.0003 26.2533ZM9.02533 7.50332C8.49617 7.50092 7.9718 7.60354 7.48259 7.80524C6.99337 8.00693 6.54904 8.30369 6.17533 8.67832C5.4204 9.43722 4.99662 10.4641 4.99662 11.5346C4.99662 12.605 5.4204 13.6319 6.17533 14.3908L15.0003 23.2283L23.8253 14.3908C24.5803 13.6319 25.004 12.605 25.004 11.5346C25.004 10.4641 24.5803 9.43722 23.8253 8.67832C23.0549 7.95045 22.0352 7.54494 20.9753 7.54494C19.9155 7.54494 18.8957 7.95045 18.1253 8.67832L15.8878 10.9283C15.7716 11.0455 15.6334 11.1385 15.481 11.2019C15.3287 11.2654 15.1653 11.2981 15.0003 11.2981C14.8353 11.2981 14.6719 11.2654 14.5196 11.2019C14.3673 11.1385 14.229 11.0455 14.1128 10.9283L11.8753 8.67832C11.5016 8.30369 11.0573 8.00693 10.5681 7.80524C10.0789 7.60354 9.55448 7.50092 9.02533 7.50332Z" fill="#2D2A2A"/>
<path d="M15.0003 26.2533C14.8358 26.2543 14.6727 26.2227 14.5204 26.1605C14.3681 26.0983 14.2296 26.0067 14.1128 25.8908L4.40033 16.1658C3.18203 14.9348 2.49866 13.2728 2.49866 11.5408C2.49866 9.80886 3.18203 8.14685 4.40033 6.91582C5.62816 5.69146 7.29137 5.00391 9.02533 5.00391C10.7593 5.00391 12.4225 5.69146 13.6503 6.91582L15.0003 8.26582L16.3503 6.91582C17.5782 5.69146 19.2414 5.00391 20.9753 5.00391C22.7093 5.00391 24.3725 5.69146 25.6003 6.91582C26.8186 8.14685 27.502 9.80886 27.502 11.5408C27.502 13.2728 26.8186 14.9348 25.6003 16.1658L15.8878 25.8908C15.771 26.0067 15.6325 26.0983 15.4802 26.1605C15.3279 26.2227 15.1648 26.2543 15.0003 26.2533ZM9.02533 7.50332C8.49617 7.50092 7.9718 7.60354 7.48259 7.80524C6.99337 8.00693 6.54904 8.30369 6.17533 8.67832C5.4204 9.43722 4.99662 10.4641 4.99662 11.5346C4.99662 12.605 5.4204 13.6319 6.17533 14.3908L15.0003 23.2283L23.8253 14.3908C24.5803 13.6319 25.004 12.605 25.004 11.5346C25.004 10.4641 24.5803 9.43722 23.8253 8.67832C23.0549 7.95045 22.0352 7.54494 20.9753 7.54494C19.9155 7.54494 18.8957 7.95045 18.1253 8.67832L15.8878 10.9283C15.7716 11.0455 15.6334 11.1385 15.481 11.2019C15.3287 11.2654 15.1653 11.2981 15.0003 11.2981C14.8353 11.2981 14.6719 11.2654 14.5196 11.2019C14.3673 11.1385 14.229 11.0455 14.1128 10.9283L11.8753 8.67832C11.5016 8.30369 11.0573 8.00693 10.5681 7.80524C10.0789 7.60354 9.55448 7.50092 9.02533 7.50332Z" stroke="black"/>
</svg>
