<svg width="26" height="24" viewBox="0 0 26 24" fill="none" xmlns="http://www.w3.org/2000/svg">
<path d="M25.4427 5.33468C25.2123 4.93546 24.8823 4.60278 24.485 4.36907C24.0877 4.13537 23.6366 4.00862 23.1758 4.0012H6.10731L5.33389 0.987553C5.25575 0.69664 5.08142 0.440754 4.83928 0.261572C4.59714 0.0823903 4.30147 -0.00953001 4.00042 0.000782056H1.33347C0.979814 0.000782056 0.64064 0.141273 0.390565 0.391347C0.140491 0.641422 0 0.980597 0 1.33426C0 1.68792 0.140491 2.02709 0.390565 2.27716C0.64064 2.52724 0.979814 2.66773 1.33347 2.66773H2.98698L6.66737 16.3492C6.74551 16.6401 6.91985 16.896 7.16198 17.0752C7.40412 17.2543 7.69979 17.3463 8.00084 17.3359H20.0021C20.2484 17.3352 20.4896 17.2663 20.6991 17.1368C20.9085 17.0074 21.0781 16.8224 21.1889 16.6025L25.5627 7.85494C25.7523 7.45759 25.8405 7.01948 25.8196 6.57972C25.7986 6.13996 25.6691 5.71222 25.4427 5.33468ZM19.1753 14.669H9.01428L6.84072 6.66815H23.1758L19.1753 14.669Z" fill="#231F20"/>
<path d="M7.33417 24C8.43885 24 9.33438 23.1045 9.33438 21.9998C9.33438 20.8951 8.43885 19.9996 7.33417 19.9996C6.22948 19.9996 5.33396 20.8951 5.33396 21.9998C5.33396 23.1045 6.22948 24 7.33417 24Z" fill="#231F20"/>
<path d="M20.6688 24C21.7735 24 22.669 23.1045 22.669 21.9998C22.669 20.8951 21.7735 19.9996 20.6688 19.9996C19.5641 19.9996 18.6686 20.8951 18.6686 21.9998C18.6686 23.1045 19.5641 24 20.6688 24Z" fill="#231F20"/>
</svg>
