<svg width="61" height="20" viewBox="0 0 61 20" fill="none" xmlns="http://www.w3.org/2000/svg">
<path d="M10.1132 0C12.9123 0.0099084 15.8018 0.663863 18.7715 1.97177L18.912 2.03122L18.9622 2.16994V2.17985C19.203 2.90316 19.4136 3.62648 19.5842 4.34979C19.7548 5.0731 19.8952 5.79642 19.9956 6.51973C20.136 7.47094 20.2163 8.41224 20.2363 9.36344V10.4732C20.1761 12.871 19.7548 15.2689 18.9622 17.6667L18.912 17.8054L18.7715 17.8649C15.9623 19.0935 13.1431 19.6979 10.3339 19.6979C10.2636 19.6979 10.1934 19.6979 10.1132 19.6979V19.0241C10.1934 19.0241 10.2636 19.0241 10.3339 19.0241C13.0026 19.0241 15.6814 18.4594 18.3602 17.31C19.524 13.743 19.8451 10.1759 19.3233 6.60891C19.223 5.91532 19.0826 5.20191 18.912 4.49842C18.7615 3.84446 18.5709 3.1806 18.3602 2.52664C15.5209 1.298 12.7719 0.68368 10.1132 0.673772V0ZM1.87615 1.98168C4.50477 0.653955 7.23371 0 10.053 0C10.073 0 10.0931 0 10.1132 0V0.673772C10.0931 0.673772 10.073 0.673772 10.053 0.673772C7.37418 0.673772 4.79572 1.28809 2.29753 2.52664C1.28421 4.90466 0.712335 7.32231 0.682237 9.7895C0.642105 12.2369 1.15378 14.7437 2.2875 17.3001C4.89605 18.4197 7.5046 18.9944 10.1132 19.0241V19.6979C7.37418 19.6682 4.6352 19.0638 1.89622 17.8649L1.71562 17.6964C0.551809 15.1202 0.0100329 12.5837 0 10.0967V9.91831C0 9.86877 0 9.82914 0 9.7796C0.0300987 7.1935 0.642105 4.64704 1.71562 2.15012L1.87615 1.98168Z" fill="#003399"/>
<path fill-rule="evenodd" clip-rule="evenodd" d="M10.2937 15.3481C10.1533 13.4556 10.2436 11.4838 9.67169 9.68051C9.13994 7.99608 7.12333 7.03497 7.0832 5.18209C7.04307 3.73547 8.15672 2.06095 10.2436 2.06095C12.2 2.05104 13.414 3.45803 13.5544 5.02356C13.725 6.8368 11.4977 8.05553 10.9158 9.7796C10.3138 11.5433 10.4844 13.4952 10.2937 15.3481Z" fill="#003399"/>
<path fill-rule="evenodd" clip-rule="evenodd" d="M11.0663 14.8923C10.986 13.2475 10.986 11.6721 11.4475 10.275C11.9592 8.68965 13.0227 7.35202 14.648 6.91605C15.7617 6.61879 17.397 7.90689 17.1362 9.2247C16.9154 10.2849 15.8419 11.5334 14.1163 11.6721C13.3136 11.7414 12.9725 12.3756 12.4709 12.7422C14.7182 12.5242 16.173 11.6523 17.1863 10.7407C17.3368 11.5135 17.4371 12.8115 16.8251 13.2574C15.6212 14.0996 14.5075 13.416 13.0929 13.8123C12.3003 14.0402 11.8087 14.5356 11.0663 14.8923Z" fill="#003399"/>
<path fill-rule="evenodd" clip-rule="evenodd" d="M9.53124 14.8923C9.62154 13.2475 9.6115 11.6721 9.16002 10.275C8.64834 8.68965 7.58486 7.35202 5.95953 6.91605C4.84588 6.61879 3.20048 7.90689 3.47137 9.2247C3.6921 10.2849 4.76562 11.5334 6.49127 11.6721C7.28387 11.7414 7.63502 12.3756 8.13667 12.7422C5.87927 12.5242 4.43453 11.6523 3.42121 10.7407C3.27071 11.5135 3.17039 12.8115 3.78239 13.2574C4.98634 14.0996 6.09999 13.416 7.51463 13.8123C8.30723 14.0402 8.78881 14.5356 9.53124 14.8923Z" fill="#003399"/>
<path fill-rule="evenodd" clip-rule="evenodd" d="M14.8788 17.3397V17.0722L15.0795 17.0226L14.8788 16.7254V16.2299L15.7818 17.4685L15.4607 17.5478L15.24 17.2406L14.8788 17.3397ZM14.8788 16.2299V16.7254L14.7383 16.5272L14.6781 17.1217L14.8788 17.0722V17.3397L14.648 17.3892L14.6079 17.7558L14.2869 17.8351L14.4976 16.22L14.8186 16.1408L14.8788 16.2299ZM11.889 18.2017V17.9441H11.9592C12.0696 17.9342 12.1398 17.9243 12.1699 17.9144C12.2101 17.9045 12.2502 17.8747 12.2703 17.845C12.3004 17.8054 12.3104 17.7657 12.3104 17.7162C12.3004 17.6667 12.2903 17.627 12.2602 17.5973C12.2402 17.5676 12.2 17.5478 12.1599 17.5379C12.1198 17.5279 12.0295 17.5279 11.889 17.5379V17.2802C11.9693 17.2802 12.0194 17.2703 12.0395 17.2703C12.0897 17.2604 12.1298 17.2307 12.1599 17.201C12.19 17.1712 12.2 17.1316 12.19 17.0821C12.19 17.0325 12.1699 16.9929 12.1398 16.9731C12.1198 16.9433 12.0796 16.9235 12.0194 16.9235C11.9994 16.9235 11.9592 16.9235 11.889 16.9334V16.6758C11.9994 16.6659 12.0796 16.6659 12.1298 16.6758C12.19 16.6758 12.2502 16.6956 12.3004 16.7254C12.3505 16.7452 12.3906 16.7848 12.4308 16.8344C12.4609 16.8839 12.4809 16.9433 12.491 17.0127C12.501 17.0821 12.4809 17.1514 12.4508 17.2109C12.4207 17.2703 12.3706 17.3199 12.3004 17.3595C12.4007 17.3793 12.4809 17.419 12.5311 17.4784C12.5913 17.5379 12.6214 17.6072 12.6314 17.6964C12.6314 17.7657 12.6214 17.8351 12.6013 17.9045C12.5712 17.9738 12.5311 18.0234 12.4809 18.0729C12.4207 18.1125 12.3605 18.1423 12.2803 18.1621C12.2301 18.172 12.0997 18.1819 11.9091 18.2017H11.889ZM13.7852 17.3694L14.0962 17.409C14.0762 17.5775 14.026 17.7162 13.9357 17.8153C13.8454 17.9045 13.715 17.9738 13.5545 18.0035C13.3538 18.0333 13.1732 17.9936 13.0227 17.8846C12.8622 17.7657 12.7719 17.5973 12.7217 17.3595C12.6816 17.1118 12.7117 16.9037 12.8221 16.7452C12.9224 16.5866 13.0829 16.4876 13.2936 16.4479C13.4842 16.4182 13.6347 16.4479 13.7752 16.5371C13.8554 16.5866 13.9257 16.6659 13.9758 16.7848L13.6849 16.9037C13.6548 16.8344 13.6046 16.7749 13.5444 16.7452C13.4742 16.7055 13.404 16.6956 13.3237 16.7055C13.2133 16.7254 13.1331 16.7848 13.0729 16.874C13.0127 16.9731 13.0027 17.1019 13.0328 17.2802C13.0729 17.4685 13.1331 17.5973 13.2133 17.6667C13.2936 17.736 13.3939 17.7657 13.5043 17.7459C13.5846 17.7261 13.6448 17.6865 13.6949 17.627C13.7451 17.5676 13.7752 17.4784 13.7852 17.3694ZM11.889 16.6758V16.9334C11.8489 16.9334 11.8087 16.9433 11.7586 16.9433L11.578 16.9632L11.6081 17.31L11.8188 17.2901C11.8388 17.2901 11.8689 17.2901 11.889 17.2802V17.5379C11.889 17.5379 11.889 17.5379 11.879 17.5379L11.6382 17.5577L11.6683 17.9639L11.889 17.9441V18.2017L11.3874 18.2513L11.2469 16.7353L11.8589 16.6857C11.8689 16.6758 11.879 16.6758 11.889 16.6758ZM9.95266 17.6766V17.4189C10.0229 17.4189 10.063 17.409 10.0931 17.3991C10.1332 17.3892 10.1633 17.3595 10.1934 17.3298C10.2135 17.2901 10.2235 17.2505 10.2235 17.2109C10.2336 17.1514 10.2135 17.1118 10.1834 17.0722C10.1533 17.0325 10.1132 17.0127 10.063 17.0028C10.0329 17.0028 10.0028 16.9929 9.95266 16.9929V16.7353C10.1031 16.7353 10.1934 16.7452 10.2436 16.765C10.3339 16.7848 10.4041 16.8344 10.4643 16.9136C10.5245 16.9929 10.5546 17.092 10.5446 17.2109C10.5446 17.3 10.5245 17.3793 10.4944 17.4487C10.4543 17.5081 10.4142 17.5577 10.364 17.5973C10.3038 17.627 10.2536 17.6468 10.1934 17.6667C10.1332 17.6766 10.053 17.6766 9.95266 17.6766ZM9.95266 16.7353V16.9929C9.92256 16.9929 9.88243 16.9929 9.83226 16.9929L9.68177 16.983V17.4189H9.84229C9.88243 17.4189 9.92256 17.4189 9.95266 17.4189V17.6766C9.93259 17.6766 9.90249 17.6766 9.87239 17.6766H9.67173L9.6617 18.2513L9.35068 18.2413L9.38078 16.7254L9.87239 16.7353C9.90249 16.7353 9.93259 16.7353 9.95266 16.7353ZM7.05315 17.5279V17.0622C7.14345 17.0821 7.20364 17.0821 7.23374 17.0821C7.27387 17.0722 7.30397 17.0622 7.33407 17.0325C7.35414 17.0028 7.3742 16.9731 7.38424 16.9235C7.39427 16.874 7.38424 16.8344 7.36417 16.7947C7.3441 16.7551 7.30397 16.7353 7.25381 16.7155C7.23374 16.7055 7.16351 16.6956 7.05315 16.6758V16.4182L7.18358 16.438C7.3441 16.4677 7.45447 16.4975 7.5247 16.5371C7.59493 16.5767 7.64509 16.6362 7.67519 16.7155C7.70529 16.7848 7.71532 16.874 7.69526 16.9632C7.67519 17.0722 7.62503 17.1613 7.54476 17.2208C7.47453 17.2802 7.36417 17.31 7.22371 17.31C7.28391 17.3595 7.33407 17.409 7.36417 17.4586C7.4043 17.518 7.44443 17.6072 7.4946 17.736L7.62503 18.063L7.26384 17.9936L7.10332 17.627C7.08325 17.5973 7.07322 17.5577 7.05315 17.5279ZM7.93605 16.5866L8.23703 16.6164L8.1668 17.4388C8.15677 17.5676 8.15677 17.6568 8.15677 17.6865C8.1668 17.7558 8.1969 17.8054 8.23703 17.845C8.2872 17.8946 8.34739 17.9144 8.43769 17.9243C8.52799 17.9342 8.59822 17.9144 8.63835 17.8846C8.68851 17.8549 8.71861 17.8153 8.73868 17.7657C8.74871 17.7162 8.75874 17.627 8.76877 17.5081L8.839 16.6659L9.15002 16.6956L9.0798 17.4883C9.06976 17.6766 9.0497 17.8054 9.0196 17.8747C8.99953 17.9441 8.9594 18.0135 8.91927 18.0531C8.8691 18.1026 8.79887 18.1423 8.71861 18.1621C8.64838 18.1918 8.54805 18.1918 8.42766 18.1819C8.27716 18.172 8.1668 18.1423 8.09657 18.1026C8.02634 18.063 7.96614 18.0135 7.92601 17.9639C7.88588 17.9045 7.86581 17.845 7.85578 17.7856C7.84575 17.6964 7.84575 17.5676 7.85578 17.3991L7.93605 16.5866ZM5.49805 17.0325L5.55825 16.7848L6.21039 16.9533L6.04986 17.5379C5.9696 17.5874 5.86927 17.6171 5.72881 17.627C5.59838 17.6369 5.47799 17.627 5.35759 17.5973C5.19707 17.5577 5.06664 17.4883 4.97634 17.3991C4.87601 17.3 4.81582 17.1811 4.78572 17.0523C4.76565 16.9136 4.76565 16.7749 4.80578 16.6362C4.84592 16.4876 4.91615 16.3587 5.01647 16.2498C5.10677 16.1507 5.22717 16.0912 5.36763 16.0615C5.47799 16.0318 5.60842 16.0417 5.74888 16.0813C5.92947 16.1309 6.06993 16.2002 6.15019 16.3092C6.23045 16.4083 6.27059 16.5371 6.26055 16.6758L5.94953 16.656C5.94953 16.5767 5.92947 16.5074 5.8793 16.4479C5.82914 16.3984 5.76894 16.3488 5.67865 16.329C5.54822 16.2993 5.43786 16.3092 5.33753 16.3687C5.2372 16.4281 5.16697 16.547 5.1168 16.7055C5.06664 16.8839 5.07667 17.0226 5.12684 17.1316C5.18703 17.2406 5.27733 17.31 5.39772 17.3397C5.46795 17.3595 5.52815 17.3595 5.59838 17.3595C5.66861 17.3496 5.72881 17.3298 5.78901 17.31L5.83917 17.1217L5.49805 17.0325ZM7.05315 16.4182L6.53144 16.329L6.27059 17.8252L6.57157 17.8747L6.68193 17.2505L6.75216 17.2604C6.82239 17.2703 6.87256 17.2901 6.90266 17.3C6.93276 17.3199 6.95282 17.3496 6.98292 17.3793C6.99295 17.409 7.02305 17.4586 7.05315 17.5279V17.0622C7.02305 17.0622 6.99295 17.0523 6.95282 17.0523L6.7321 17.0127L6.7923 16.6362L7.03309 16.6758C7.04312 16.6758 7.05315 16.6758 7.05315 16.6758V16.4182Z" fill="#003399"/>
<path fill-rule="evenodd" clip-rule="evenodd" d="M54.8699 14.5653V11.7712H56.114V6.85659L54.8699 9.31387V3.18057H59.7559L61 17.31H56.114V14.5653H54.8699ZM54.8699 3.18057V9.31387L53.6258 11.7712H54.8699V14.5653H52.5222L51.559 17.1613H48.5291V13.9312L51.9102 6.72778H51.2179L53.1442 3.18057H54.8699ZM48.5291 7.88706L50.044 4.33985L48.5291 3.50755V7.88706ZM36.4796 6.52961C36.5498 6.12337 36.5498 5.72703 36.4796 5.35051V6.52961ZM48.5291 3.50755V7.88706L48.3284 8.36267C45.3386 6.25218 40.9242 8.17441 40.6733 10.4038C40.4225 12.7323 42.2184 14.6149 46.8034 13.2079L45.2283 17.3694C39.1784 18.0333 36.8307 15.6652 36.4796 12.9007V11.3352C36.5699 10.6119 36.7605 9.90838 37.0214 9.25442C40.0011 1.94202 44.837 3.58681 46.673 3.4481L46.9439 2.63561L48.5291 3.50755ZM48.5291 13.9312L47.0141 17.1613H48.5291V13.9312ZM31.0418 17.0722C34.2824 16.438 37.4628 12.5936 34.2723 9.53186C35.5164 8.8779 36.289 7.6988 36.4796 6.52961V5.35051C36.2589 4.13178 35.3057 3.14094 33.5098 3.11121L31.0418 3.06167V5.77657H32.0651C33.1587 5.77657 33.0182 8.57074 31.6538 8.57074H31.0418V10.711C32.5166 10.9884 31.9949 13.0097 31.0418 13.6339V17.0722ZM36.4796 11.3352V12.9007C36.4194 12.3855 36.4194 11.8603 36.4796 11.3352ZM26.7677 2.97249L24.7712 6.79714L25.6641 6.72778L23.2562 17.1613H30.1488C30.4498 17.1613 30.7408 17.1316 31.0418 17.0722V13.6339C30.8712 13.7528 30.6806 13.8222 30.4899 13.8222H28.0118L28.8345 10.6812H30.6906C30.821 10.6812 30.9414 10.6911 31.0418 10.711V8.57074H29.3161L30.0084 5.77657H31.0418V3.06167L26.7677 2.97249Z" fill="#003399"/>
</svg>
